<svg preserveAspectRatio="none" width="100%" height="100%" overflow="visible" style="display: block;" viewBox="0 0 101 17" fill="none" xmlns="http://www.w3.org/2000/svg">
<g id="eventgenie.ai">
<path d="M4.39027 12.5976C1.83348 12.5976 0 10.7351 0 8.14442C0 5.60458 1.85031 3.79283 4.35663 3.79283C6.81249 3.79283 8.46094 5.46912 8.44412 7.94123H1.127V8.11056C1.127 10.1424 2.4895 11.5647 4.35663 11.5647C6.10601 11.5647 7.35076 10.4641 7.41804 8.95717H8.56187C8.47776 11.0906 6.72838 12.5976 4.39027 12.5976ZM1.29521 6.99303H7.21619C6.93024 5.57072 5.88734 4.7749 4.35663 4.7749C2.74182 4.7749 1.64845 5.65538 1.29521 6.99303Z" fill="#DACFC6"/>
<path d="M12.4367 12.4283L9.15665 3.96215H10.3509L13.0759 11.26H13.1432L15.8514 3.96215H17.0289L13.7488 12.4283H12.4367Z" fill="#DACFC6"/>
<path d="M22.0496 12.5976C19.4929 12.5976 17.6594 10.7351 17.6594 8.14442C17.6594 5.60458 19.5097 3.79283 22.016 3.79283C24.4719 3.79283 26.1203 5.46912 26.1035 7.94123H18.7864V8.11056C18.7864 10.1424 20.1489 11.5647 22.016 11.5647C23.7654 11.5647 25.0101 10.4641 25.0774 8.95717H26.2212C26.1371 11.0906 24.3878 12.5976 22.0496 12.5976ZM18.9546 6.99303H24.8756C24.5896 5.57072 23.5467 4.7749 22.016 4.7749C20.4012 4.7749 19.3078 5.65538 18.9546 6.99303Z" fill="#DACFC6"/>
<path d="M27.7951 12.4283V3.96215H28.9221V5.68924C29.4267 4.47012 30.5369 3.79283 32.0339 3.79283C34.0861 3.79283 35.3477 5.09661 35.3477 7.33167V12.4283H34.2207V7.501C34.2207 5.8247 33.2955 4.84263 31.748 4.84263C30.0154 4.84263 28.9221 6.04482 28.9221 8.05976V12.4283H27.7951Z" fill="#DACFC6"/>
<path d="M38.0165 12.4283V4.97809H36.3849V4.06374L36.9064 4.02988C37.6969 3.99602 38.0334 3.64044 38.067 2.79382L38.1343 1.60857H39.1267V3.96215H41.1789V4.97809H39.1267V12.4283H38.0165Z" fill="#DACFC6"/>
<path d="M45.1166 17C42.3243 17 40.5076 15.1544 40.9113 12.6484H42.0215C41.7187 14.5956 43.0139 15.9671 45.1334 15.9671C47.3874 15.9671 48.8508 14.7649 49.1031 12.6484L49.3555 10.4641C48.6153 11.6663 47.2024 12.4283 45.6885 12.4283C43.5186 12.4283 41.9206 10.7859 41.9206 8.5C41.9206 5.8247 43.9391 3.79283 46.6641 3.79283C48.2453 3.79283 49.4564 4.55478 49.9105 5.74004H49.9274L50.146 3.96215H51.2562L50.1965 12.7331C49.8601 15.4592 48.0098 17 45.1166 17ZM43.0812 8.48307C43.0812 10.2102 44.2587 11.3785 45.9744 11.3785C48.0098 11.3785 49.7423 9.71912 49.7423 7.70418C49.7423 6.02789 48.5817 4.84263 46.7818 4.84263C44.6624 4.84263 43.0812 6.41733 43.0812 8.48307Z" fill="#DACFC6"/>
<path d="M56.7613 12.5976C54.2045 12.5976 52.371 10.7351 52.371 8.14442C52.371 5.60458 54.2213 3.79283 56.7276 3.79283C59.1835 3.79283 60.8319 5.46912 60.8151 7.94123H53.498V8.11056C53.498 10.1424 54.8605 11.5647 56.7276 11.5647C58.477 11.5647 59.7218 10.4641 59.789 8.95717H60.9329C60.8488 11.0906 59.0994 12.5976 56.7613 12.5976ZM53.6662 6.99303H59.5872C59.3012 5.57072 58.2583 4.7749 56.7276 4.7749C55.1128 4.7749 54.0195 5.65538 53.6662 6.99303Z" fill="#DACFC6"/>
<path d="M62.5067 12.4283V3.96215H63.6337V5.68924C64.1383 4.47012 65.2485 3.79283 66.7456 3.79283C68.7977 3.79283 70.0593 5.09661 70.0593 7.33167V12.4283H68.9323V7.501C68.9323 5.8247 68.0071 4.84263 66.4596 4.84263C64.727 4.84263 63.6337 6.04482 63.6337 8.05976V12.4283H62.5067Z" fill="#DACFC6"/>
<path d="M72.1151 12.4283V3.96215H73.2421V12.4283H72.1151ZM71.6105 1.01594C71.6105 0.423306 72.0647 0 72.6702 0C73.2926 0 73.7468 0.423306 73.7468 1.01594C73.7468 1.59163 73.2926 2.01494 72.6702 2.01494C72.0647 2.01494 71.6105 1.59163 71.6105 1.01594Z" fill="#DACFC6"/>
<path d="M79.4393 12.5976C76.8826 12.5976 75.0491 10.7351 75.0491 8.14442C75.0491 5.60458 76.8994 3.79283 79.4057 3.79283C81.8616 3.79283 83.51 5.46912 83.4932 7.94123H76.1761V8.11056C76.1761 10.1424 77.5386 11.5647 79.4057 11.5647C81.1551 11.5647 82.3998 10.4641 82.4671 8.95717H83.6109C83.5268 11.0906 81.7775 12.5976 79.4393 12.5976ZM76.3443 6.99303H82.2653C81.9793 5.57072 80.9364 4.7749 79.4057 4.7749C77.7909 4.7749 76.6975 5.65538 76.3443 6.99303Z" fill="#DACFC6"/>
<path d="M85.9872 12.5976C85.3816 12.5976 84.9274 12.1743 84.9274 11.5986C84.9274 11.006 85.3816 10.5827 85.9872 10.5827C86.6095 10.5827 87.0637 11.006 87.0637 11.5986C87.0637 12.1743 86.6095 12.5976 85.9872 12.5976Z" fill="#DACFC6"/>
<path d="M92.6443 12.5976C90.2053 12.5976 88.3718 10.7181 88.3718 8.19522C88.3718 5.68924 90.2053 3.79283 92.6443 3.79283C94.1414 3.79283 95.4534 4.57171 96.059 5.75697V3.96215H97.186V12.4283H96.059V10.6504C95.4534 11.8357 94.1414 12.5976 92.6443 12.5976ZM89.5324 8.19522C89.5324 10.1255 90.9454 11.5478 92.8462 11.5478C94.7469 11.5478 96.1431 10.1086 96.1431 8.19522C96.1431 6.28187 94.7469 4.84263 92.8293 4.84263C90.9454 4.84263 89.5324 6.28187 89.5324 8.19522Z" fill="#DACFC6"/>
<path d="M99.3684 12.4283V3.96215H100.495V12.4283H99.3684ZM98.8637 1.01594C98.8637 0.423306 99.3179 0 99.9235 0C100.546 0 101 0.423306 101 1.01594C101 1.59163 100.546 2.01494 99.9235 2.01494C99.3179 2.01494 98.8637 1.59163 98.8637 1.01594Z" fill="#DACFC6"/>
</g>
</svg>
